<svg xmlns="http://www.w3.org/2000/svg" viewBox="0 0 1600 620" role="img" aria-label="">
  <g fill="none" stroke="#486e5b" stroke-opacity=".14" stroke-width="2">
    <path d="M-80 105C185 18 334 184 590 103S1035 17 1261 98s337 25 435-29"/>
    <path d="M-90 166c246-79 417 71 659 2s425-93 657-7 364 26 480-39"/>
    <path d="M-78 233c232-70 398 49 638-4s430-88 666-12 357 34 485-25"/>
    <path d="M-92 307c246-62 420 35 655-9s416-74 657-9 363 43 488-9"/>
    <path d="M-88 389c259-58 421 28 662-13s405-61 644-4 361 50 493 2"/>
    <path d="M-75 478c251-49 421 12 659-22s397-43 631 4 358 54 487 16"/>
  </g>
  <g fill="none" stroke="#845f18" stroke-opacity=".09" stroke-width="1.5">
    <path d="M-30 137c257-84 402 76 650 2s414-86 639-3 319 38 390 8"/>
    <path d="M-22 351c248-64 405 34 640-9s401-64 635-2 316 55 393 29"/>
  </g>
</svg>
